<svg width="25" height="24" viewBox="0 0 25 24" fill="none" xmlns="http://www.w3.org/2000/svg">
<path fill-rule="evenodd" clip-rule="evenodd" d="M12.5 5.09C12.5 5.09 14.105 3 17 3C20.038 3 22.5 5.462 22.5 8.5C22.5 12.3049 18.4125 16.0024 16.6557 17.5916C16.4866 17.7445 16.3392 17.8779 16.219 17.99C14.642 19.46 12.5 21.35 12.5 21.35C12.5 21.35 10.358 19.46 8.781 17.99C8.66083 17.8779 8.51337 17.7445 8.34433 17.5916C6.58753 16.0024 2.5 12.3049 2.5 8.5C2.5 5.462 4.962 3 8 3C10.895 3 12.5 5.09 12.5 5.09Z" fill="#310A90"/>
</svg>
